<svg xmlns="http://www.w3.org/2000/svg" width="32" height="32" viewBox="0 0 24 24" fill="none" stroke="#E62429" stroke-width="1.5" stroke-linecap="round" stroke-linejoin="round">
  <path d="M12 2v20M2 12h20M5.6 5.6l12.8 12.8M5.6 18.4L18.4 5.6"/>
  <path d="M12 7c-1.326 0-2.598.527-3.536 1.464C7.527 9.402 7 10.674 7 12s.527 2.598 1.464 3.536S10.674 17 12 17s2.598-.527 3.536-1.464S17 13.326 17 12s-.527-2.598-1.464-3.536S13.326 7 12 7z"/>
  <path d="M12 4.5c-1.989 0-3.897.79-5.303 2.197C5.29 8.103 4.5 10.011 4.5 12s.79 3.897 2.197 5.303S10.011 19.5 12 19.5s3.897-.79 5.303-2.197S19.5 13.989 19.5 12s-.79-3.897-2.197-5.303S13.989 4.5 12 4.5z"/>
</svg>
